# xmcd
# Track frame offsets:
# 150
# 24036
# 45788
# 77964
# 99869
# 130276
# 155868
# 185718
# 211032
# 239026
# 262987
# 301013
#
# Disc length: 4321 seconds
# Revision: 0
# Processed by: cddbd v1.5.2PL0 Copyright (c) Steve Scherf et al.
# Submitted via: VisiTrax 2.11.1.266 - For more info visit www.synapsa.com
#
DISCID=9010df0c
DTITLE=Station, Bluesville - Snakebit'n'Boogie
DYEAR=2010
DGENRE=
TTITLE0=Snake Bittin' Boogie
TTITLE1=Quite Content
TTITLE2=One More Night With You
TTITLE3=Do Dat Ditty
TTITLE4=Prowlin'
TTITLE5=Miss Me When I'm Gone
TTITLE6=One Thing Blues
TTITLE7=Ride My Way Home
TTITLE8=Time To Go
TTITLE9=I Got Arrested
TTITLE10=Sri Lankan Sunset
TTITLE11=Castlemaine Drain
EXTD=
EXTT0=
EXTT1=
EXTT2=
EXTT3=
EXTT4=
EXTT5=
EXTT6=
EXTT7=
EXTT8=
EXTT9=
EXTT10=
EXTT11=
PLAYORDER=
